<svg width="88" height="20" viewBox="0 0 88 20" fill="none" xmlns="http://www.w3.org/2000/svg">
    <path d="M36.1339 0.00860951C36.7883 0.0344381 37.4426 0.0774856 38.0969 0.0602666C38.493 0.0516571 38.7598 0.17219 39.0181 0.464914C40.1374 1.73912 41.2738 2.9875 42.4103 4.24449C42.4447 4.28754 42.4964 4.31337 42.5739 4.38224C43.3832 3.47824 44.1838 2.58285 44.9845 1.68746C45.0706 1.59276 45.1567 1.48945 45.2428 1.39474C45.6389 0.964266 45.966 0.35299 46.4568 0.146362C46.9819 -0.0774856 47.6707 0.0774856 48.282 0.0688761C48.5058 0.0688761 48.7383 0.0688761 48.988 0.0688761C48.9966 0.241066 49.0138 0.370209 49.0138 0.490742C49.0138 3.13386 49.0052 5.76837 49.0224 8.4115C49.0224 8.77309 48.9191 8.88502 48.5575 8.8678C48.0409 8.84197 47.5243 8.84197 47.0078 8.8678C46.672 8.88502 46.5945 8.75588 46.5945 8.44593C46.6031 6.98232 46.6031 5.5187 46.6031 4.05508C46.6031 3.90872 46.6031 3.75375 46.4998 3.56434C46.0263 4.08091 45.5614 4.58887 45.0878 5.10544C44.5885 5.65645 44.0891 6.21607 43.5726 6.74986C43.4693 6.86178 43.2885 6.88761 43.1421 6.95649C43.1335 6.9651 43.1163 6.95649 43.099 6.95649C42.0745 7.13729 41.3083 6.79291 40.6798 5.93196C40.1374 5.18293 39.4486 4.53721 38.8287 3.83984C38.734 3.73653 38.6996 3.59017 38.6307 3.46963C38.579 3.51268 38.5188 3.55573 38.4671 3.59878C38.4671 5.32929 38.4671 7.0598 38.4671 8.82475C37.6492 8.82475 36.8744 8.82475 36.0479 8.82475C36.0479 5.87169 36.0479 2.93584 36.0479 0C36.0823 0.00860951 36.1081 0.00860951 36.1339 0.00860951Z" fill="white"/>
    <path d="M0 0.103316C0.103314 0.0947068 0.17219 0.0774878 0.249676 0.0774878C2.85836 0.0860973 5.46704 0.0344402 8.07572 0.111926C10.2453 0.180802 10.8308 2.20404 10.0904 3.70209C9.98704 3.90872 9.78902 4.08091 9.61683 4.28754C9.63405 4.30476 9.65127 4.34781 9.69431 4.38225C10.6328 5.05379 11.0116 6.01805 10.7447 7.02537C10.4606 8.05851 9.591 8.76449 8.44593 8.84197C7.88632 8.87641 7.3267 8.8678 6.76708 8.8678C4.69219 8.8678 2.60868 8.8678 0.53379 8.8678C0.370209 8.8678 0.198019 8.8678 0.00860955 8.8678C3.27144e-08 5.92335 0 3.03916 0 0.103316ZM2.39345 3.63322C2.56564 3.64183 2.68617 3.65905 2.81531 3.65905C4.27893 3.65905 5.74255 3.65905 7.20616 3.65905C7.80022 3.65905 8.09294 3.40937 8.08433 2.91002C8.07572 2.4451 7.80022 2.21265 7.20616 2.20404C5.73394 2.19543 4.2531 2.19543 2.78087 2.19543C2.66034 2.19543 2.5312 2.21265 2.39345 2.22987C2.39345 2.70339 2.39345 3.14248 2.39345 3.63322ZM2.39345 6.6982C2.49676 6.71542 2.54842 6.73264 2.60007 6.73264C4.20144 6.73264 5.81142 6.74125 7.41279 6.73264C7.86049 6.73264 8.15321 6.4227 8.15321 6.00944C8.1446 5.59619 7.8691 5.34651 7.37835 5.34651C6.12137 5.34651 4.85577 5.34651 3.59878 5.34651C3.20274 5.34651 2.8067 5.34651 2.39345 5.34651C2.39345 5.81142 2.39345 6.23329 2.39345 6.6982Z" fill="white"/>
    <path d="M61.0846 0.120494C61.0846 3.04773 61.0846 5.92331 61.0846 8.85054C60.3011 8.85054 59.5263 8.85054 58.7084 8.85054C58.7084 8.23927 58.6825 7.6366 58.717 7.04254C58.7428 6.64651 58.5964 6.54319 58.2262 6.56902C57.7957 6.60346 57.3653 6.56902 56.9348 6.60346C56.3149 6.65512 55.7811 6.93923 55.3248 7.3611C54.1539 8.4459 52.742 8.85915 51.1922 8.88498C51.0803 8.88498 50.8737 8.75584 50.8737 8.66974C50.8479 8.10151 50.8565 7.53329 50.8565 6.93062C51.7433 6.83592 52.6042 6.75843 53.3274 6.14716C53.2155 6.08689 53.1466 6.04384 53.0691 6.01801C51.6227 5.44117 50.9081 4.45108 50.9512 3.06495C50.9856 1.85962 51.9241 0.740379 53.2758 0.335732C53.7062 0.206589 54.1711 0.120494 54.6274 0.120494C56.6679 0.0946657 58.6997 0.111885 60.7402 0.111885C60.8435 0.103275 60.9382 0.111885 61.0846 0.120494ZM58.6825 2.24704C57.2361 2.24704 55.8328 2.22983 54.4294 2.25565C53.9903 2.26426 53.6546 2.53977 53.4996 2.97885C53.2327 3.76232 53.7493 4.43386 54.6619 4.45108C55.5487 4.4683 56.4354 4.45108 57.3308 4.45108C57.7699 4.45108 58.209 4.45108 58.6739 4.45108C58.6825 3.70205 58.6825 3.00468 58.6825 2.24704Z" fill="white"/>
    <path d="M24.5973 0.103333C27.7139 0.103333 30.8305 0.103333 33.9816 0.103333C33.9816 0.792094 33.9816 1.46364 33.9816 2.19544C33.818 2.19544 33.6803 2.19544 33.5425 2.19544C31.4935 2.19544 29.4444 2.20405 27.3867 2.18683C27.0337 2.18683 26.9132 2.28154 26.9218 2.64314C26.9304 3.57297 26.9132 3.57297 27.8344 3.57297C29.3239 3.57297 30.8133 3.57297 32.3114 3.57297C32.4663 3.57297 32.6213 3.57297 32.7935 3.57297C32.7935 4.20146 32.7935 4.76969 32.7935 5.38957C30.8392 5.38957 28.9192 5.38957 27.0165 5.38957C26.9735 5.46706 26.9477 5.49289 26.939 5.51872C26.8443 6.73266 26.8443 6.73266 28.0324 6.73266C29.8663 6.73266 31.7001 6.74127 33.5425 6.72405C33.8869 6.72405 34.0333 6.81014 34.0161 7.17174C33.9902 7.61083 33.9988 8.05852 34.0161 8.50622C34.0247 8.74728 33.9644 8.86782 33.6803 8.86782C30.7444 8.85921 27.8 8.86782 24.8641 8.86782C24.6747 8.86782 24.537 8.84199 24.537 8.59231C24.5456 5.81144 24.5456 3.03057 24.5456 0.249694C24.5456 0.206647 24.5714 0.163599 24.5973 0.103333Z" fill="white"/>
    <path d="M11.2957 19.9914C11.795 18.984 12.2599 18.0714 12.7162 17.1502C13.6116 15.3422 14.5156 13.5342 15.3938 11.7176C15.5574 11.3818 15.7468 11.2441 16.1428 11.2527C17.3998 11.2871 18.6654 11.2699 19.931 11.2613C20.1635 11.2613 20.327 11.3044 20.439 11.5454C21.7907 14.2919 23.151 17.0383 24.5113 19.7847C24.5371 19.8364 24.5371 19.888 24.5715 19.9914C23.702 19.9914 22.8582 20 22.0145 19.9827C21.9112 19.9827 21.7734 19.8536 21.7132 19.7417C21.5065 19.3629 21.3516 18.9582 21.1363 18.5966C21.0502 18.4589 20.8436 18.3211 20.6886 18.3211C18.872 18.3039 17.0468 18.3039 15.2302 18.3211C15.0838 18.3211 14.8772 18.4675 14.7911 18.6052C14.5673 18.9668 14.4037 19.3715 14.1971 19.7503C14.1368 19.8536 13.999 19.9741 13.8957 19.9827C13.052 20 12.2255 19.9914 11.2957 19.9914ZM15.9964 16.1343C17.3309 16.1343 18.5965 16.1343 19.931 16.1343C19.5005 15.2389 19.1045 14.4038 18.6912 13.5687C18.6482 13.4826 18.5018 13.3965 18.3985 13.3879C17.3654 13.2845 17.3654 13.2932 16.9004 14.2058C16.8057 14.3952 16.7024 14.5846 16.6163 14.7826C16.4097 15.2303 16.2117 15.6608 15.9964 16.1343Z" fill="white"/>
    <path d="M64.8123 19.974C63.9858 19.974 63.2454 19.974 62.4619 19.974C62.4533 19.8018 62.4361 19.6555 62.4361 19.5005C62.4361 16.9004 62.4447 14.309 62.4275 11.7089C62.4275 11.3301 62.5308 11.2182 62.9096 11.2268C65.0706 11.2526 67.2488 11.1751 69.4012 11.2956C71.9152 11.4334 73.4046 13.9904 72.3629 16.2289C71.7946 17.4514 70.7701 18.123 69.4529 18.2263C68.0667 18.3296 66.672 18.2952 65.2859 18.2952C64.8984 18.2952 64.7779 18.4071 64.8037 18.7773C64.8382 19.1647 64.8123 19.5522 64.8123 19.974ZM67.0422 13.3533C67.0422 13.3619 67.0422 13.3619 67.0422 13.3533C66.4223 13.3533 65.811 13.3619 65.1911 13.3533C64.9156 13.3447 64.8037 13.4308 64.8123 13.7149C64.8295 14.4037 64.8295 15.0924 64.8123 15.7726C64.8037 16.1084 64.9415 16.1772 65.2428 16.1772C66.4309 16.1686 67.619 16.1772 68.8071 16.1686C69.5734 16.16 70.133 15.5573 70.1502 14.7394C70.1674 13.9302 69.6509 13.3705 68.8416 13.3533C68.2389 13.3447 67.6363 13.3533 67.0422 13.3533Z" fill="white"/>
    <path d="M27.8605 18.3123C27.8605 18.9064 27.8605 19.4144 27.8605 19.9654C27.0684 19.9654 26.3021 19.9654 25.5015 19.9654C25.5015 17.0812 25.5015 14.1884 25.5015 11.2611C25.6392 11.2525 25.7856 11.2353 25.9233 11.2353C27.8777 11.2353 29.8234 11.2181 31.7778 11.2353C32.9229 11.2439 33.9991 11.5022 34.8083 12.4148C35.7382 13.4652 35.9792 14.6791 35.5057 15.9792C35.0064 17.3481 33.9474 18.1143 32.5182 18.2262C31.1751 18.3296 29.8234 18.2865 28.4804 18.3037C28.2823 18.3123 28.1015 18.3123 27.8605 18.3123ZM27.8863 16.1513C28.0413 16.16 28.179 16.1772 28.3254 16.1772C29.4705 16.1772 30.6241 16.1858 31.7692 16.1772C32.6388 16.1686 33.1639 15.6003 33.1639 14.6791C33.1553 13.8268 32.6646 13.3619 31.7606 13.3533C30.6155 13.3533 29.4618 13.3533 28.3168 13.3533C28.179 13.3533 28.0413 13.3705 27.8863 13.3791C27.8863 14.3261 27.8863 15.2215 27.8863 16.1513Z" fill="white"/>
    <path d="M73.9384 11.2354C74.6788 11.2354 75.3934 11.2268 76.108 11.2527C76.1768 11.2527 76.2888 11.4421 76.2974 11.554C76.3232 11.9931 76.306 12.4322 76.306 12.9315C76.5643 12.9315 76.7709 12.9315 76.9861 12.9315C78.3636 12.9574 79.7412 12.8885 81.1101 13.0348C82.4618 13.1812 83.4949 13.9216 83.9512 15.2733C84.4075 16.6078 84.1665 17.8303 83.2108 18.8635C82.5737 19.5608 81.73 19.9311 80.8001 19.9569C78.5617 20.0085 76.3318 19.9827 74.0933 19.9827C74.0503 19.9827 74.0158 19.9655 73.9384 19.9397C73.9384 17.0727 73.9384 14.1971 73.9384 11.2354ZM76.3318 17.8389C77.804 17.8389 79.2332 17.8476 80.6624 17.8303C80.8432 17.8303 81.0498 17.7012 81.1962 17.5807C81.6094 17.2277 81.73 16.4959 81.5061 15.9018C81.2995 15.3422 80.8862 15.0667 80.2491 15.0667C79.0868 15.0667 77.9332 15.0667 76.7709 15.0667C76.6331 15.0667 76.4954 15.0839 76.3404 15.0925C76.3318 16.0223 76.3318 16.9005 76.3318 17.8389Z" fill="white"/>
    <path d="M12.7505 0.111774C12.871 0.103165 12.9829 0.0945552 13.0949 0.0945552C15.1612 0.0945552 17.2274 0.0859457 19.2851 0.0945552C21.0242 0.103165 22.4965 1.21379 22.8667 2.7635C23.366 4.82979 22.0574 6.81858 19.9308 7.04243C18.5705 7.18879 17.1844 7.11992 15.8069 7.14575C15.5916 7.14575 15.385 7.14575 15.1267 7.14575C15.1267 7.72258 15.1267 8.25637 15.1267 8.83321C14.3174 8.83321 13.5512 8.83321 12.7505 8.83321C12.7505 5.94041 12.7505 3.03901 12.7505 0.111774ZM15.1353 5.01059C16.5559 5.01059 17.9248 5.0192 19.2937 5.00198C19.707 4.99337 20.0083 4.73508 20.2063 4.38209C20.7918 3.34895 20.2063 2.24693 19.0354 2.2125C17.8043 2.17806 16.5731 2.20389 15.342 2.20389C15.2731 2.20389 15.2042 2.23832 15.1267 2.25554C15.1353 3.15954 15.1353 4.05493 15.1353 5.01059Z" fill="white"/>
    <path d="M37.0813 19.9656C37.0813 17.0555 37.0813 14.18 37.0813 11.2441C37.8045 11.2441 38.5019 11.2355 39.1992 11.2613C39.2767 11.2613 39.4145 11.4594 39.4231 11.5799C39.4489 12.019 39.4317 12.4581 39.4317 12.9402C40.1635 12.9402 40.835 12.9316 41.5066 12.9402C42.4192 12.9574 43.349 12.9144 44.253 13.0349C46.922 13.3793 48.1962 16.3409 46.6465 18.5192C46.018 19.4059 45.1054 19.9139 44.0636 19.9483C41.7477 20.0172 39.4403 19.9656 37.0813 19.9656ZM39.4575 17.8476C40.9211 17.8476 42.3417 17.8648 43.7537 17.8304C43.9775 17.8218 44.2444 17.6496 44.408 17.4688C44.8385 16.9953 44.8557 16.4184 44.6232 15.8588C44.3994 15.3164 43.9689 15.0581 43.3662 15.0667C42.204 15.0753 41.0417 15.0667 39.8794 15.0753C39.7416 15.0753 39.6039 15.0926 39.4575 15.1012C39.4575 16.0224 39.4575 16.9006 39.4575 17.8476Z" fill="white"/>
    <path d="M0.00878906 11.2872C0.800864 11.2872 1.5585 11.2872 2.35919 11.2872C2.35919 12.3634 2.35919 13.4396 2.35919 14.5674C2.95324 14.5674 3.50425 14.5847 4.05526 14.5502C4.16718 14.5416 4.28772 14.3608 4.37381 14.2403C5.12284 13.0952 6.09572 12.1998 7.39575 11.7263C8.33419 11.3905 9.30706 11.2442 10.3488 11.27C10.3488 11.9674 10.3488 12.6389 10.3488 13.3449C8.87659 13.5171 7.40436 13.7065 6.6209 14.9549C7.21495 15.6436 7.73152 16.2807 8.29975 16.8576C8.85937 17.4172 9.54813 17.7616 10.3574 17.8477C10.4607 17.8563 10.6329 18.0112 10.6415 18.1059C10.6674 18.7086 10.6588 19.3027 10.6588 20C10.1422 19.9398 9.66005 19.9225 9.19514 19.8278C8.03286 19.5954 7.06859 19.0099 6.2593 18.1404C6.05267 17.9165 5.83743 17.7099 5.6308 17.4947C5.05396 16.9178 4.38242 16.5993 3.5473 16.6509C3.17709 16.6768 2.80688 16.6509 2.39362 16.6509C2.39362 17.7616 2.39362 18.8291 2.39362 19.9312C1.58433 19.9312 0.818083 19.9312 0.0173986 19.9312C0.00878905 17.09 0.00878906 14.2144 0.00878906 11.2872Z" fill="white"/>
    <path d="M87.705 19.974C86.9043 19.974 86.1467 19.974 85.3374 19.974C85.3287 19.8277 85.3201 19.6899 85.3201 19.5522C85.3201 16.9177 85.3287 14.2832 85.3115 11.6486C85.3115 11.3215 85.3976 11.2268 85.7248 11.2354C86.3791 11.2526 87.0334 11.244 87.705 11.244C87.705 14.1712 87.705 17.0468 87.705 19.974Z" fill="white"/>
    <path d="M57.3223 19.9655C54.154 19.9655 51.0373 19.9655 47.8862 19.9655C47.8862 19.2681 47.8862 18.5879 47.8862 17.8647C48.0584 17.8647 48.2134 17.8647 48.3684 17.8647C51.2095 17.8647 54.042 17.8647 56.8832 17.8561C57.2189 17.8561 57.3481 17.9336 57.3309 18.278C57.2964 18.8204 57.3223 19.3628 57.3223 19.9655Z" fill="white"/>
    <path d="M59.0955 14.593C59.0955 15.2904 59.0955 15.9533 59.0955 16.6593C55.953 16.6593 52.8278 16.6593 49.6853 16.6593C49.6853 15.9619 49.6853 15.299 49.6853 14.593C52.8192 14.593 55.9272 14.593 59.0955 14.593Z" fill="white"/>
    <path d="M61.0845 11.2786C61.0845 11.976 61.0845 12.6303 61.0845 13.3191C57.9506 13.3191 54.8426 13.3191 51.6915 13.3191C51.6915 12.6561 51.6915 11.9846 51.6915 11.2786C54.8082 11.2786 57.9334 11.2786 61.0845 11.2786Z" fill="white"/>
</svg>